<?xml version="1.0" encoding="UTF-8"?>
<svg id="Line_Work" data-name="Line Work" xmlns="http://www.w3.org/2000/svg" width="1024" height="1024" viewBox="0 0 1024 1024">
  <circle cx="505.64" cy="507.51" r="241.41" style="fill: none; stroke: #6ef5e9; stroke-miterlimit: 10; stroke-width: 8.77px;"/>
  <path d="M630.59,417.82l-1.41,260.61-43.85,39.76-43.53-39.65-.25-125.36c-5.21,3.08-10.56,6.15-16.06,9.23-5.44,3.03-10.79,5.93-16.07,8.71-.17.08-.33.18-.48.26-.19-.09-.39-.2-.59-.29-5.41-2.75-10.92-5.64-16.51-8.68-5.65-3.07-11.12-6.14-16.41-9.22l-.25,125.36-43.53,39.65-43.85-39.76-1.41-260.61,24.69,15.69.83,222.2,19.31,21.51,21.69-18.7.55-145.41c13.33,7.77,26.68,15.53,40.03,23.3l-.24-75.15-106.25-78.29.34-40.61,56.13,41.38-24.62-.34,74.33,55.14-.27-84.16-32.32-.22c16.12-20.3,32.25-40.58,48.35-60.88.01-.02.04-.04.05-.06.01.02.02.04.05.06,15.78,20.3,31.56,40.58,47.34,60.87l-32.32.22-.27,84.16,74.33-55.14-24.62.34,56.13-41.38.34,40.61-106.25,78.29-.24,75.15c13.35-7.77,26.69-15.53,40.03-23.3l.55,145.41,21.69,18.7,19.31-21.51.83-222.2,24.69-15.69Z" style="fill: #6ef5e9; stroke: #3db9b1; stroke-miterlimit: 10; stroke-width: 4px;"/>
</svg>